<svg id="Layer_1" enable-background="new 0 0 512 512" height="512" viewBox="0 0 512 512" width="512" xmlns="http://www.w3.org/2000/svg" xmlns:xlink="http://www.w3.org/1999/xlink"><linearGradient id="SVGID_1_" gradientUnits="userSpaceOnUse" x1="26.559" x2="485.441" y1="256" y2="256"><stop offset="0" stop-color="#80d8ff"/><stop offset="1" stop-color="#ea80fc"/></linearGradient><path d="m206.565 192c52.935 0 96-43.065 96-96s-43.065-96-96-96-96 43.065-96 96 43.066 96 96 96zm0-152c30.879 0 56 25.121 56 56s-25.122 56-56 56-56-25.121-56-56 25.122-56 56-56zm218.001 353.124c0 11.046-8.954 20-20 20h-18v18c0 11.046-8.954 20-20 20s-20-8.954-20-20v-18h-18c-11.046 0-20-8.954-20-20s8.954-20 20-20h18v-18c0-11.046 8.954-20 20-20s20 8.954 20 20v18h18c11.046 0 20 8.954 20 20zm-58-118.875c-8.153 0-16.117.826-23.813 2.397l-5.067-24.67c-1.91-9.3-10.096-15.976-19.591-15.976h-63.06c-5.304 0-10.392 2.107-14.142 5.857l-34.328 34.328-34.328-34.328c-3.75-3.75-8.838-5.857-14.142-5.857h-63.06c-9.495 0-17.681 6.676-19.591 15.977l-48.47 236c-2.543 12.38 6.919 24.023 19.591 24.023h320c65.548 0 118.875-53.327 118.875-118.876.001-65.548-53.326-118.875-118.874-118.875zm-255.22 1.751h38.466l42.612 42.612c7.81 7.809 20.473 7.809 28.284 0l42.612-42.612h38.466l3.181 15.486c-34.312 20.873-57.276 58.624-57.276 101.638 0 30.24 11.356 57.874 30.02 78.876h-206.621zm255.22 196c-43.492 0-78.876-35.384-78.876-78.876s35.384-78.875 78.876-78.875 78.875 35.383 78.875 78.875-35.383 78.876-78.875 78.876z" fill="url(#SVGID_1_)"/></svg>