<?xml version="1.0" encoding="iso-8859-1"?>
<!-- Generator: Adobe Illustrator 19.0.0, SVG Export Plug-In . SVG Version: 6.00 Build 0)  -->
<svg version="1.1" id="Capa_1" xmlns="http://www.w3.org/2000/svg" xmlns:xlink="http://www.w3.org/1999/xlink" x="0px" y="0px"
	 viewBox="0 0 512 512" style="enable-background:new 0 0 512 512;" xml:space="preserve">
<linearGradient id="SVGID_1_" gradientUnits="userSpaceOnUse" x1="0" y1="258.0001" x2="512.0002" y2="258.0001" gradientTransform="matrix(1 0 0 -1 0 514.0002)">
	<stop  offset="0" style="stop-color:#80D8FF"/>
	<stop  offset="1" style="stop-color:#EA80FC"/>
</linearGradient>
<path style="fill:url(#SVGID_1_);" d="M362.008,492c0,11.046-8.954,20-20,20H94.269c-6.185,0-12.022-2.861-15.81-7.75
	C25.315,435.667,0,344.866,0,256C0,167.124,25.318,76.329,78.459,7.75C82.247,2.861,88.084,0,94.269,0h247.739
	c11.046,0,20,8.954,20,20s-8.954,20-20,20H104.283C60.59,100.557,40,179.485,40,256c0,76.55,20.605,155.464,64.283,216h237.724
	C353.053,472,362.008,480.954,362.008,492z M506.199,241.908c-0.016-0.016-0.029-0.034-0.045-0.05l-77.372-77.37
	c-7.811-7.811-20.475-7.811-28.286,0s-7.811,20.474,0,28.284L443.725,236H192.004c-11.046,0-20,8.954-20,20c0,11.046,8.954,20,20,20
	h251.721l-43.229,43.228c-7.811,7.811-7.811,20.474,0,28.284c7.81,7.81,20.475,7.811,28.286,0l77.372-77.37
	C514.138,262.157,513.743,249.503,506.199,241.908z"/>
<g>
</g>
<g>
</g>
<g>
</g>
<g>
</g>
<g>
</g>
<g>
</g>
<g>
</g>
<g>
</g>
<g>
</g>
<g>
</g>
<g>
</g>
<g>
</g>
<g>
</g>
<g>
</g>
<g>
</g>
</svg>
