<svg height="431pt" viewBox="0 -8 431.5 431" width="431pt" xmlns="http://www.w3.org/2000/svg" xmlns:xlink="http://www.w3.org/1999/xlink"><linearGradient id="a"><stop offset=".322" stop-color="#a163f5"/><stop offset=".466" stop-color="#b074ee"/><stop offset=".752" stop-color="#d8a1dd"/><stop offset=".898" stop-color="#efbad3"/></linearGradient><linearGradient id="b" gradientUnits="userSpaceOnUse" x1="242.5" x2="242.5" xlink:href="#a" y1="453.25" y2="-22.229"/><linearGradient id="c" gradientUnits="userSpaceOnUse" x1="108.5" x2="108.5" xlink:href="#a" y1="453.25" y2="-22.229"/><path d="m382.5 26.25h-44.5v-17c0-4.96875-4.03125-9-9-9s-9 4.03125-9 9v17h-152v-17c0-4.96875-4.03125-9-9-9s-9 4.03125-9 9v17h-47.5c-27.050781.03125-48.96875 21.949219-49 49v150c0 4.96875 4.03125 9 9 9s9-4.03125 9-9v-59h342v199c-.019531 17.113281-13.886719 30.980469-31 31h-280c-17.113281-.019531-30.980469-13.886719-31-31v-52c0-4.96875-4.03125-9-9-9s-9 4.03125-9 9v52c.03125 27.050781 21.949219 48.96875 49 49h280c27.050781-.03125 48.96875-21.949219 49-49v-290c-.03125-27.050781-21.949219-48.96875-49-49zm-311 122v-73c.019531-17.113281 13.886719-30.980469 31-31h47.5v24.4375c-13.554688 4.425781-21.878906 18.042969-19.640625 32.125 2.242187 14.078125 14.382813 24.441406 28.640625 24.441406s26.398438-10.363281 28.640625-24.441406c2.238281-14.082031-6.085937-27.699219-19.640625-32.125v-24.4375h152v24.4375c-13.554688 4.425781-21.878906 18.042969-19.640625 32.125 2.242187 14.078125 14.382813 24.441406 28.640625 24.441406s26.398438-10.363281 28.640625-24.441406c2.238281-14.082031-6.085937-27.699219-19.640625-32.125v-24.4375h44.5c17.113281.019531 30.980469 13.886719 31 31v73zm87.5-63c6.074219 0 11 4.925781 11 11s-4.925781 11-11 11-11-4.925781-11-11c.007812-6.070312 4.929688-10.992188 11-11zm170 0c6.074219 0 11 4.925781 11 11s-4.925781 11-11 11-11-4.925781-11-11c.007812-6.070312 4.929688-10.992188 11-11zm0 0" fill="url(#b)"/><path d="m154.636719 309.886719c-3.515625 3.515625-3.515625 9.210937 0 12.726562s9.210937 3.515625 12.726562 0l47-47c3.515625-3.515625 3.515625-9.210937 0-12.726562l-47-47c-3.515625-3.515625-9.210937-3.515625-12.726562 0s-3.515625 9.210937 0 12.726562l31.636719 31.636719h-177.273438c-4.96875 0-9 4.03125-9 9s4.03125 9 9 9h177.273438zm0 0" fill="url(#c)"/></svg>