<svg id="Capa_1" enable-background="new 0 0 512 512" height="512" viewBox="0 0 512 512" width="512" xmlns="http://www.w3.org/2000/svg" xmlns:xlink="http://www.w3.org/1999/xlink"><linearGradient id="SVGID_1_" gradientUnits="userSpaceOnUse" x1="39.333" x2="472.667" y1="256" y2="256"><stop offset="0" stop-color="#80d8ff"/><stop offset="1" stop-color="#ea80fc"/></linearGradient><path d="m452.667 0h-393.334c-11.046 0-20 8.954-20 20v472c0 11.046 8.954 20 20 20h393.333c11.046 0 20-8.954 20-20v-472c.001-11.046-8.953-20-19.999-20zm-255.334 40h117.333v38.667h-117.333zm235.334 432h-353.334v-432h78v58.667c0 11.046 8.954 20 20 20h157.333c11.046 0 20-8.954 20-20v-58.667h78v432zm-72.81-308.809c7.811-7.811 20.475-7.811 28.285 0s7.81 20.474 0 28.284l-39.15 39.15c-7.811 7.811-20.475 7.81-28.285 0l-19.804-19.804c-7.81-7.811-7.81-20.474 0-28.284 7.811-7.811 20.475-7.811 28.285 0l5.661 5.662zm-103.524 33.718c0 11.046-8.954 20-20 20h-98.333c-11.046 0-20-8.954-20-20s8.954-20 20-20h98.333c11.046 0 20 8.954 20 20zm131.808 64.707c7.811 7.81 7.812 20.474.001 28.284l-39.15 39.151c-7.81 7.809-20.479 7.806-28.285 0l-19.804-19.804c-7.81-7.811-7.81-20.474 0-28.284 7.811-7.811 20.475-7.811 28.285 0l5.661 5.662 25.008-25.009c7.811-7.811 20.474-7.811 28.284 0zm-131.808 33.534c0 11.046-8.954 20-20 20h-98.333c-11.046 0-20-8.954-20-20s8.954-20 20-20h98.333c11.046 0 20 8.954 20 20zm0 98.425c0 11.046-8.954 20-20 20h-98.333c-11.046 0-20-8.954-20-20s8.954-20 20-20h98.333c11.046 0 20 8.954 20 20z" fill="url(#SVGID_1_)"/></svg>