<svg id="Capa_1" enable-background="new 0 0 512 512" height="512" viewBox="0 0 512 512" width="512" xmlns="http://www.w3.org/2000/svg" xmlns:xlink="http://www.w3.org/1999/xlink"><linearGradient id="SVGID_1_" gradientUnits="userSpaceOnUse" x1="316.5" x2="316.5" y1="391" y2="0"><stop offset="0" stop-color="#a93aff"/><stop offset="1" stop-color="#ff81ff"/></linearGradient><linearGradient id="SVGID_2_" gradientUnits="userSpaceOnUse" x1="256" x2="256" y1="512" y2="0"><stop offset="0" stop-color="#ffbef9"/><stop offset="1" stop-color="#fff1ff"/></linearGradient><g id="Time_management_2_"><g><g><path d="m256 121c-74.443 0-135 60.557-135 135s60.557 135 135 135 135-60.557 135-135-60.557-135-135-135zm255.886 100.253c-14.473-115.723-105.41-206.66-221.134-221.162-4.423-.454-8.583.806-11.806 3.633-3.223 2.856-5.068 6.943-5.068 11.25v60.645c0 7.324 5.303 13.579 12.51 14.795 69.199 11.646 123.545 65.977 135.205 135.19 1.23 7.222 7.471 12.51 14.795 12.51h60.615c4.307 0 8.409-1.846 11.25-5.068 2.842-3.239 4.16-7.531 3.633-11.793z" fill="url(#SVGID_1_)"/></g></g><g><g><path d="m256 271h60c8.291 0 15-6.709 15-15s-6.709-15-15-15h-45v-45c0-8.291-6.709-15-15-15s-15 6.709-15 15v60c0 8.291 6.709 15 15 15zm252.252 6.068c-2.841-3.223-6.943-5.068-11.25-5.068h-60.615c-7.324 0-13.564 5.288-14.795 12.51-13.417 79.673-81.854 137.49-162.714 137.49-34.482 0-67.529-10.562-95.537-30.542-5.947-4.233-14.15-3.589-19.307 1.611l-42.861 42.847c-3.047 3.032-4.629 7.236-4.365 11.543.264 4.292 2.373 8.262 5.771 10.898 45.118 35.098 99.17 53.643 156.299 53.643 128.32 0 237.1-95.933 253.008-223.14.527-4.262-.791-8.554-3.634-11.792zm-387.695 71.597c-19.981-28.067-30.557-61.099-30.557-95.552 0-80.859 57.832-149.297 137.49-162.7 7.207-1.216 12.51-7.471 12.51-14.795v-60.645c0-4.307-1.846-8.394-5.068-11.25-3.223-2.827-7.295-4.087-11.807-3.633-127.207 15.938-223.125 124.703-223.125 253.023 0 57.114 18.545 111.167 53.643 156.299 2.637 3.398 6.592 5.508 10.898 5.771 4.731.215 8.704-1.512 11.543-4.365l42.861-42.847c5.186-5.17 5.86-13.344 1.612-19.306z" fill="url(#SVGID_2_)"/></g></g></g></svg>